# xmcd
#
# Track frame offsets:
#	150
#	17411
#	35712
#	53789
#	70660
#	84342
#	100747
#	111713
#	129453
#	147534
#	166755
#	184512
#	201351
#	220167
#	238417
#	254457
#	268626
#	285280
#	312535
#
# Disc length: 4175
#
# Revision: 2
# Processed by: cddbd v1.5.1PL0 Copyright (c) Steve Scherf et al.
# Submitted via: audiograbber 1.83.01
# Normalized: r1:DSETVAR1
#
DISCID=1a104d13
DTITLE=Various Artist - Top Tunes - Mixed Country - TT-81
DYEAR=2001
DGENRE=Karaoke
TTITLE0=Clay Walker - A Few Questions
TTITLE1=Jennifer Hanson - Beautiful Goodbye
TTITLE2=Kenny Chesney - Big Star
TTITLE3=Brad Paisley - Celebrity
TTITLE4=Joe Nichols - Cool to be A Fool
TTITLE5=Toby Keith - Courtesy of the Red White and Blue
TTITLE6=Tracy Byrd - Drinkin' Bone
TTITLE7=Alan Jackson and Jimmy Buffett - Five O'Clock Somewhere
TTITLE8=Darryl Worley - Have You Forgotten?
TTITLE9=Montgomery Gentry - Hell Yeah
TTITLE10=Buddy Jewel - Help Pour Out the Rain
TTITLE11=Johnny Cash - Hurt
TTITLE12=Trisha Yearwood - I Don't Paint Myself Into Corners
TTITLE13=Toby Keith - I Love This Bar
TTITLE14=Reba McEntire - I'm Gonna Take That Moutian
TTITLE15=Rascal Flatts - Love You Out Loud
TTITLE16=Patty Loveless - Lovin All Night
TTITLE17=Kenny Chesney - No Shoes, No Shirt, No Problems
TTITLE18=None - Data Track
EXTD=
EXTT0=
EXTT1=
EXTT2=
EXTT3=
EXTT4=
EXTT5=
EXTT6=
EXTT7=
EXTT8=
EXTT9=
EXTT10=
EXTT11=
EXTT12=
EXTT13=
EXTT14=
EXTT15=
EXTT16=
EXTT17=
EXTT18=
PLAYORDER=
